<?xml version="1.0" encoding="UTF-8"?>
<svg id="Layer_1" xmlns="http://www.w3.org/2000/svg" version="1.1" viewBox="0 0 726.19 579">
  <!-- Generator: Adobe Illustrator 29.8.2, SVG Export Plug-In . SVG Version: 2.1.1 Build 3)  -->
  <defs>
    <style>
      .st0 {
        fill: #1c1c1c;
      }

      .st1 {
        fill: #28ceab;
      }
    </style>
  </defs>
  <path class="st0" d="M249.2,102.99l161.87,229.58h110.42L331.75,65.33s-.04-.05-.06-.08l30.89-30.11c-44.15,9.04-84.24,32.84-113.38,67.85Z"/>
  <path class="st0" d="M476.33,476.85l-161.17-228.59h-110.42l189.73,267.25s.04.05.06.07l-28.5,27.78c42.86-9.32,81.74-32.59,110.29-66.51Z"/>
  <polygon class="st1" points="521.49 361.13 429.68 361.13 494.3 452.79 559.67 361.13 521.49 361.13"/>
  <polygon class="st1" points="296.55 219.7 231.28 127.13 165.26 219.7 204.75 219.7 296.55 219.7"/>
  <polygon class="st1" points="181.46 264.79 157.34 230.81 90.77 324.15 250.47 530.31 264.11 547.93 320.44 547.93 339.54 529.31 357.1 512.19 181.46 264.79"/>
  <polygon class="st1" points="475.77 49.38 461.58 31.07 407.67 31.07 386.69 51.52 369.13 68.64 544.77 316.05 568.24 349.11 635.2 255.21 475.77 49.38"/>
  <polygon class="st0" points="646.11 93.97 645.8 94.21 606.27 43.18 597.2 31.62 498.34 31.9 652.52 230.94 700.63 163.47 646.11 93.97"/>
  <polygon class="st0" points="73.46 348.43 25.56 415.59 80.4 485.5 80.43 485.48 84.13 490.26 129.37 547.93 181.37 547.93 227.89 547.8 73.46 348.43"/>
</svg>