<?xml version="1.0" encoding="UTF-8"?>
<svg id="Layer_1" xmlns="http://www.w3.org/2000/svg" version="1.1" viewBox="0 0 740.5 579">
  <!-- Generator: Adobe Illustrator 29.8.2, SVG Export Plug-In . SVG Version: 2.1.1 Build 3)  -->
  <defs>
    <style>
      .st0 {
        fill: #fff;
      }

      .st1 {
        fill: #28ceab;
      }
    </style>
  </defs>
  <path class="st0" d="M256.36,102.99l161.87,229.58h110.42L338.91,65.33s-.04-.05-.06-.08l30.89-30.11c-44.15,9.04-84.24,32.84-113.38,67.85Z"/>
  <path class="st0" d="M483.48,476.85l-161.17-228.59h-110.42l189.73,267.25s.04.05.06.07l-28.5,27.78c42.86-9.32,81.74-32.59,110.29-66.51Z"/>
  <polygon class="st1" points="528.64 361.13 436.84 361.13 501.46 452.79 566.82 361.13 528.64 361.13"/>
  <polygon class="st1" points="303.7 219.7 238.43 127.13 172.41 219.7 211.9 219.7 303.7 219.7"/>
  <polygon class="st1" points="188.62 264.79 164.49 230.81 97.93 324.15 257.62 530.31 271.27 547.93 327.59 547.93 346.69 529.31 364.26 512.19 188.62 264.79"/>
  <polygon class="st1" points="482.92 49.38 468.74 31.07 414.83 31.07 393.85 51.52 376.28 68.64 551.93 316.05 575.4 349.11 642.36 255.21 482.92 49.38"/>
  <polygon class="st0" points="653.27 93.97 652.96 94.21 613.42 43.18 604.36 31.62 505.5 31.9 659.67 230.94 707.78 163.47 653.27 93.97"/>
  <polygon class="st0" points="80.61 348.43 32.71 415.59 87.56 485.5 87.58 485.48 91.28 490.26 136.52 547.93 188.53 547.93 235.04 547.8 80.61 348.43"/>
</svg>